<svg xmlns="http://www.w3.org/2000/svg" width="568" height="349" fill="none" viewBox="0 0 568 349"><path fill="#fff" d="M496.773 283.581q-15.285 0-28.469-5.158-12.992-5.159-22.545-14.33-9.553-9.363-14.904-21.782-5.349-12.419-5.349-27.131t5.349-27.131 14.904-21.59q9.553-9.363 22.545-14.521t28.469-5.159q15.285 0 28.086 5.159 12.993 4.968 22.546 14.33 9.744 9.171 14.903 21.59 5.35 12.42 5.35 27.322 0 14.904-5.35 27.323-5.159 12.418-14.903 21.781-9.553 9.171-22.546 14.33-12.801 4.968-28.086 4.967m0-17.004q11.082 0 20.444-3.822 9.553-3.821 16.431-10.699 7.07-7.07 10.891-16.432 4.012-9.362 4.012-20.444t-4.012-20.444q-3.822-9.362-10.891-16.24-6.878-7.07-16.431-10.891-9.362-3.82-20.444-3.821-11.272 0-20.826 3.821-9.363 3.822-16.432 10.891-7.07 6.878-11.082 16.24-3.82 9.363-3.821 20.444 0 11.082 3.821 20.444 4.013 9.363 11.082 16.432 7.07 6.878 16.432 10.699 9.553 3.822 20.826 3.822M366.656 283.581q-15.285 0-28.277-4.967-12.802-5.159-22.355-14.33-9.361-9.363-14.712-21.781-5.35-12.42-5.35-27.323 0-14.902 5.35-27.322t14.903-21.59q9.554-9.362 22.355-14.33 12.992-5.159 28.277-5.159 15.476 0 28.469 5.35 13.183 5.159 22.355 15.476l-12.42 12.037q-7.643-8.024-17.196-11.846-9.553-4.012-20.443-4.012-11.273 0-21.018 3.821-9.552 3.821-16.622 10.7t-11.082 16.431q-3.82 9.363-3.821 20.444 0 11.082 3.821 20.635 4.013 9.362 11.082 16.241t16.622 10.699q9.745 3.822 21.018 3.822 10.89 0 20.443-3.822 9.553-4.012 17.196-12.228l12.42 12.037q-9.172 10.318-22.355 15.668-12.993 5.349-28.66 5.349M212.497 283.581q-15.285 0-28.469-5.158-12.992-5.159-22.545-14.33-9.554-9.363-14.903-21.782t-5.35-27.131q0-14.711 5.35-27.131t14.903-21.59q9.553-9.363 22.545-14.521t28.469-5.159q15.285 0 28.086 5.159 12.993 4.968 22.546 14.33 9.744 9.171 14.903 21.59 5.35 12.42 5.35 27.322 0 14.904-5.35 27.323-5.159 12.418-14.903 21.781-9.553 9.171-22.546 14.33-12.801 4.968-28.086 4.967m0-17.004q11.082 0 20.444-3.822 9.554-3.821 16.431-10.699 7.07-7.07 10.891-16.432 4.012-9.362 4.012-20.444t-4.012-20.444q-3.821-9.362-10.891-16.24-6.877-7.07-16.431-10.891-9.363-3.82-20.444-3.821-11.272 0-20.826 3.821-9.363 3.822-16.432 10.891-7.07 6.878-11.082 16.24-3.82 9.363-3.821 20.444 0 11.082 3.821 20.444 4.013 9.363 11.082 16.432 7.07 6.878 16.432 10.699 9.554 3.822 20.826 3.822M0 282.053V148.308h56.364q21.4 0 37.64 8.406 16.432 8.408 25.411 23.501 9.172 15.094 9.172 34.965 0 19.87-9.172 34.965-8.98 15.095-25.411 23.501-16.24 8.407-37.64 8.407zm19.107-16.623h36.11q16.623 0 28.66-6.305 12.23-6.305 18.916-17.578 6.687-11.463 6.687-26.367 0-15.093-6.687-26.367-6.687-11.272-18.916-17.578-12.036-6.305-28.66-6.305h-36.11zM487.984 348.764a20 20 0 0 1-6.61-1.101q-3.129-1.146-4.847-2.909l1.278-2.511q1.63 1.586 4.362 2.688a16.2 16.2 0 0 0 5.817 1.057q2.908 0 4.715-.705 1.851-.749 2.688-1.983a4.6 4.6 0 0 0 .881-2.732q0-1.807-1.058-2.908-1.013-1.102-2.687-1.719a28 28 0 0 0-3.702-1.145 200 200 0 0 1-4.054-1.014 18.5 18.5 0 0 1-3.745-1.498 8.06 8.06 0 0 1-2.732-2.424q-1.014-1.542-1.014-4.009 0-2.292 1.19-4.187 1.234-1.938 3.745-3.084 2.512-1.19 6.434-1.19 2.6 0 5.155.749 2.556.705 4.407 1.983l-1.102 2.6a14.5 14.5 0 0 0-4.23-1.939q-2.204-.617-4.274-.617-2.777 0-4.583.749-1.806.75-2.688 2.027-.837 1.235-.837 2.82 0 1.807 1.013 2.909 1.058 1.101 2.732 1.718 1.72.617 3.746 1.102 2.027.484 4.01 1.057 2.027.573 3.701 1.499 1.72.88 2.732 2.379 1.058 1.498 1.058 3.922 0 2.247-1.234 4.186-1.234 1.894-3.79 3.084-2.511 1.146-6.477 1.146M423.4 348.5v-30.845h11.545q3.922 0 6.742 1.277 2.82 1.234 4.319 3.614 1.542 2.335 1.542 5.684 0 3.261-1.542 5.64-1.499 2.336-4.319 3.614-2.82 1.233-6.742 1.233h-9.738l1.454-1.498V348.5zm21.063 0-7.931-11.193h3.525l7.976 11.193zm-17.802-11.016-1.454-1.543h9.65q4.627 0 7.006-2.027 2.424-2.027 2.424-5.684 0-3.702-2.424-5.728-2.379-2.027-7.006-2.027h-9.65l1.454-1.543zM375.684 348.764q-3.48 0-6.477-1.146-2.952-1.19-5.156-3.304a16.1 16.1 0 0 1-3.393-4.98q-1.19-2.864-1.19-6.257t1.19-6.213a15.5 15.5 0 0 1 3.393-4.979 15.1 15.1 0 0 1 5.156-3.305q2.952-1.19 6.477-1.19 3.481 0 6.434 1.19 2.952 1.146 5.111 3.261a14.6 14.6 0 0 1 3.393 4.979q1.234 2.864 1.234 6.257t-1.234 6.257a14.6 14.6 0 0 1-3.393 4.98q-2.159 2.115-5.111 3.304-2.953 1.146-6.434 1.146m0-2.908q2.776 0 5.112-.925 2.379-.97 4.098-2.688a12.7 12.7 0 0 0 2.732-4.054q.969-2.336.969-5.112t-.969-5.067a12.05 12.05 0 0 0-2.732-4.054 11.44 11.44 0 0 0-4.098-2.688q-2.336-.97-5.112-.97t-5.155.97a11.9 11.9 0 0 0-4.142 2.688 13 13 0 0 0-2.732 4.054q-.97 2.29-.97 5.067 0 2.732.97 5.068a13.5 13.5 0 0 0 2.732 4.098 12.8 12.8 0 0 0 4.142 2.688q2.38.924 5.155.925M324.668 348.5v-30.845h3.261V348.5zM268.589 348.5v-30.845h11.545q3.921 0 6.742 1.277 2.82 1.234 4.318 3.614 1.542 2.335 1.542 5.684 0 3.261-1.542 5.64-1.498 2.336-4.318 3.614-2.82 1.233-6.742 1.233h-9.738l1.454-1.498V348.5zm21.063 0-7.932-11.193h3.525l7.976 11.193zm-17.802-11.016-1.454-1.543h9.65q4.627 0 7.006-2.027 2.424-2.027 2.424-5.684 0-3.702-2.424-5.728-2.38-2.027-7.006-2.027h-9.65l1.454-1.543zM217.785 331.447h16.304v2.776h-16.304zm.352 14.233h18.552v2.82h-21.812v-30.845h21.151v2.82h-17.891zM171.331 348.5v-28.025h-10.84v-2.82h24.941v2.82h-10.84V348.5zM109.245 348.5l12.647-17.097v2.511l-11.898-16.259h3.746l10.003 13.571-1.455.045 10.003-13.616h3.525l-11.765 16.039v-2.291l12.602 17.097h-3.789L122.2 334.003h1.366L112.991 348.5zM63.103 331.447h16.304v2.776H63.103zm.352 14.233h18.551v2.82H60.194v-30.845h21.152v2.82h-17.89z"/><path fill="#58e3ea" d="M241.661.43a3.5 3.5 0 0 1 3.583.131l32.834 21.254L310.913.561l.22-.13a3.5 3.5 0 0 1 3.583.13l171.473 111a3.5 3.5 0 0 1-3.804 5.877L312.814 7.668l-28.296 18.317 132.198 85.576a3.5 3.5 0 0 1-3.803 5.877L243.341 7.668l-169.57 109.77a3.5 3.5 0 1 1-3.805-5.877L241.44.561z"/></svg>